# xmcd
# 
# Track frame offsets:
#     150
#     21815
#     38779
#     50251
#     69170
#     78848
#     99724
#     121226
#     136268
#     155239
#     178838
# 
# Disc length: 2774
# 
# Revision: 2
# Processed by: cddbd v1.5.2PL0 Copyright (c) Steve Scherf et al.
# Submitted via: fre:ac v1.0.17
# 
DISCID=8a0ad40b
DTITLE=Various Artist - Der perfekte Klang
DYEAR=2011
DGENRE=Other
TTITLE0=Livingston Taylor - Tell Jesus (to come to my house)
TTITLE1=Chris Jones - No Sanctuary Here
TTITLE2=Abegg Trio - Divertimento à tre Es-Dur Hob. IV - 5 Moderato assai  (J. Haydn)
TTITLE3=Al di Meola - Strawberry Fields
TTITLE4=Daniel Gaede - Valse Bluette  (R. Drigo)
TTITLE5=Friend 'n Fellow - Wonderful World and Reprise
TTITLE6=Auryn Quartet - Klavierquintett Es-Dur op. 44, Scherzo. Molto Vivace
TTITLE7=Udo Schild - All The Lonely Girls
TTITLE8=Sächsisches Vocalensemble - Vulnerasti cor meum  (Guillaume Bouzignac)
TTITLE9=Hans Theesink - No Expectations
TTITLE10=Kammerensemble des Figuralchors Stuttgat - Petite messe solennelle, Kyrie  (G. Rossini)
EXTD=
EXTT0=
EXTT1=
EXTT2=
EXTT3=
EXTT4=
EXTT5=
EXTT6=
EXTT7=
EXTT8=
EXTT9=
EXTT10=
PLAYORDER=
